<svg width="66" height="88" viewBox="0 0 66 88" fill="none" xmlns="http://www.w3.org/2000/svg">
<path d="M33.4999 0C28.7265 0 24.1483 1.8945 20.7729 5.2734C17.394 8.6484 15.4995 13.2265 15.4995 18.0004V26.0004H0.499512V88.0004H65.4995V26.0004H51.4995V18.0004C51.4995 13.227 49.605 8.6488 46.2261 5.2734C42.8511 1.8945 38.273 0 33.4991 0H33.4999ZM21.4999 18C21.4999 11.3711 26.871 6 33.4999 6C40.1288 6 45.4999 11.3711 45.4999 18V26H21.4999V18ZM59.4999 32V82H6.49991V32H15.4999V43H21.4999V32H45.4999V43H51.4999V32H59.4999Z" fill="black"/>
</svg>
