<svg width="76" height="67" viewBox="0 0 76 67" fill="none" xmlns="http://www.w3.org/2000/svg">
<path d="M72.7001 16.1098C73.0295 17.3196 73.2948 18.5532 73.4995 19.7992V25.3235C73.4713 25.4207 73.4466 25.5172 73.4249 25.6128L73.3975 25.7335L73.3822 25.8563C73.1093 28.0425 72.4925 30.1685 71.5539 32.1542C69.3499 36.7556 66.3984 40.9469 62.8235 44.5582L62.8061 44.5758L62.789 44.5938C55.4844 52.271 47.0718 58.5734 38.0348 64.2206C30.8671 59.8332 24.1165 54.7791 17.8761 49.1242L17.8678 49.1166L17.8594 49.1091C13.3221 45.0714 9.37269 40.4013 6.13548 35.2395L6.13398 35.2371C2.75142 29.857 1.67069 23.3181 3.14287 17.1171L3.14695 17.0999L3.15078 17.0827C6.19304 3.41295 23.0678 -2.14812 33.5232 6.97734L33.5307 6.98384C34.1209 7.49488 34.6028 7.99884 35.1745 8.59677C35.5157 8.95368 35.889 9.34406 36.3364 9.78941L38.6108 12.0532L40.2495 9.29423C40.2541 9.28649 40.2589 9.27869 40.2639 9.27084C45.059 3.90435 50.7655 1.64782 57.6458 2.81478L57.6475 2.81506C65.2705 4.10277 70.209 8.58281 72.7001 16.1098Z" stroke="black" stroke-width="5"/>
</svg>
