<svg width="72" height="72" viewBox="0 0 72 72" fill="none" xmlns="http://www.w3.org/2000/svg">
<g clip-path="url(#clip0)">
<path d="M29.7505 59.76C21.8111 59.7994 14.1834 56.6775 8.55009 51.0862C2.91386 45.4949 -0.264149 37.89 -0.286469 29.9527C-0.311781 22.0133 2.82415 14.3914 8.42697 8.76889C14.0294 3.14389 21.6404 -0.0201517 29.577 -0.0287917C37.5164 -0.0372294 45.1326 3.11278 50.7464 8.72641C56.3574 14.3402 59.5102 21.9564 59.5016 29.893C59.5044 37.7964 56.3741 45.3758 50.7968 50.9724C45.2196 56.5721 37.6511 59.7305 29.7512 59.7586L29.7505 59.76ZM29.7505 5.76001C23.3436 5.72063 17.1843 8.2322 12.631 12.7406C8.07763 17.249 5.50701 23.3801 5.47886 29.7873C5.45355 36.1942 7.97639 42.3477 12.4932 46.8931C17.0073 51.4381 23.1471 54.0003 29.5536 54.0143C35.9602 54.0284 42.109 51.4943 46.645 46.969C51.1816 42.4436 53.7325 36.3015 53.7325 29.8942C53.7466 23.5154 51.2294 17.3928 46.7322 12.8676C42.2378 8.34229 36.1288 5.78578 29.7503 5.76044L29.7505 5.76001Z" fill="black"/>
<path d="M67.9251 72.0001L48.0186 52.2001L52.0939 48.1248L72.0005 67.9161L67.9251 72.0001Z" fill="black"/>
</g>
<defs>
<clipPath id="clip0">
<rect width="72" height="72" fill="white"/>
</clipPath>
</defs>
</svg>
